# xmcd
#
# Track frame offsets: 
#        150
#        21142
#        39527
#
# Disc length: 804 seconds
#
# Revision: 1
# Processed by: cddbd v1.5PL3 Copyright (c) Steve Scherf et al.
# Submitted via: ExactAudioCopy v0.95a3
#
DISCID=1b032203
DTITLE=Zeebra - SUPATECH(what's my name?)
DYEAR=2003
DGENRE=Hip-Hop
TTITLE0=SUPATECH(what's my name?)
TTITLE1=SUPATECH(what's my name?)(Remix)
TTITLE2=SUPATECH(what's my name?)
EXTD=
EXTT0=
EXTT1=
EXTT2=
PLAYORDER=
